<?xml version="1.0" encoding="UTF-8"?>
<xmeml version="4">
	<project>
		<name>Stairwell_scene_shotsRootProject</name>
		<children>
			<clip id="masterclip-1">
				<masterclipid>masterclip-1</masterclipid>
				<ismasterclip>TRUE</ismasterclip>
				<duration>120</duration>
				<rate>
					<timebase>24</timebase>
					<ntsc>FALSE</ntsc>
				</rate>
				<in>0</in>
				<out>120</out>
				<name>shot0030_01</name>
				<media>
					<video>
						<track>
							<clipitem id="clipitem-1">
								<masterclipid>masterclip-1</masterclipid>
								<ismasterclip>TRUE</ismasterclip>
								<name>shot0030_01</name>
								<enabled>TRUE</enabled>
								<duration>120</duration>
								<rate>
									<timebase>24</timebase>
									<ntsc>FALSE</ntsc>
								</rate>
								<in>0</in>
								<out>120</out>
								<anamorphic>FALSE</anamorphic>
								<pixelaspectratio>square</pixelaspectratio>
								<fielddominance>lower</fielddominance>
								<file id="file-1">
									<name>shot0030_01.avi</name>
									<pathurl>file://localhost/C%3a/Users/igfxd/OneDrive/Documents/Unreal%20Projects/Morrigan/MorriganHall/MorriganHall%205.2/Saved/VideoCaptures/shot0030_01.avi</pathurl>
									<rate>
										<timebase>24</timebase>
										<ntsc>FALSE</ntsc>
									</rate>
									<duration>120</duration>
									<timecode>
										<rate>
											<timebase>24</timebase>
											<ntsc>FALSE</ntsc>
										</rate>
										<string>00:00:00:00</string>
										<frame>0</frame>
									</timecode>
									<media>
										<video>
											<samplecharacteristics>
												<rate>
													<timebase>24</timebase>
													<ntsc>FALSE</ntsc>
												</rate>
												<width>1280</width>
												<height>720</height>
												<anamorphic>FALSE</anamorphic>
												<pixelaspectratio>square</pixelaspectratio>
												<fielddominance>lower</fielddominance>
											</samplecharacteristics>
										</video>
									</media>
								</file>
							</clipitem>
						</track>
					</video>
				</media>
				<logginginfo>
					<description />
					<scene />
					<shottake />
					<good />
					<originalvideofilename />
					<originalaudiofilename />
					<lognote>[UEShotSection=/Game/Cinematics/Sequences/Stairwell_scene_shots/Stairwell_scene_shotsRoot.Stairwell_scene_shotsRoot:MovieScene_0.MovieSceneCinematicShotTrack_0.MovieSceneCinematicShotSection_9][UEShotStartOffset=0][UEShotHandleFrames=0]</lognote>
				</logginginfo>
				<colorinfo>
					<lut />
					<lut1 />
					<asc_sop />
					<asc_sat />
					<lut2 />
				</colorinfo>
			</clip>
			<clip id="masterclip-2">
				<masterclipid>masterclip-2</masterclipid>
				<ismasterclip>TRUE</ismasterclip>
				<duration>121</duration>
				<rate>
					<timebase>24</timebase>
					<ntsc>FALSE</ntsc>
				</rate>
				<in>0</in>
				<out>121</out>
				<name>shot0010_01</name>
				<media>
					<video>
						<track>
							<clipitem id="clipitem-2">
								<masterclipid>masterclip-2</masterclipid>
								<ismasterclip>TRUE</ismasterclip>
								<name>shot0010_01</name>
								<enabled>TRUE</enabled>
								<duration>121</duration>
								<rate>
									<timebase>24</timebase>
									<ntsc>FALSE</ntsc>
								</rate>
								<in>0</in>
								<out>121</out>
								<anamorphic>FALSE</anamorphic>
								<pixelaspectratio>square</pixelaspectratio>
								<fielddominance>lower</fielddominance>
								<file id="file-2">
									<name>shot0010_01.avi</name>
									<pathurl>file://localhost/C%3a/Users/igfxd/OneDrive/Documents/Unreal%20Projects/Morrigan/MorriganHall/MorriganHall%205.2/Saved/VideoCaptures/shot0010_01.avi</pathurl>
									<rate>
										<timebase>24</timebase>
										<ntsc>FALSE</ntsc>
									</rate>
									<duration>121</duration>
									<timecode>
										<rate>
											<timebase>24</timebase>
											<ntsc>FALSE</ntsc>
										</rate>
										<string>00:00:00:00</string>
										<frame>0</frame>
									</timecode>
									<media>
										<video>
											<samplecharacteristics>
												<rate>
													<timebase>24</timebase>
													<ntsc>FALSE</ntsc>
												</rate>
												<width>1280</width>
												<height>720</height>
												<anamorphic>FALSE</anamorphic>
												<pixelaspectratio>square</pixelaspectratio>
												<fielddominance>lower</fielddominance>
											</samplecharacteristics>
										</video>
									</media>
								</file>
							</clipitem>
						</track>
					</video>
				</media>
				<logginginfo>
					<description />
					<scene />
					<shottake />
					<good />
					<originalvideofilename />
					<originalaudiofilename />
					<lognote>[UEShotSection=/Game/Cinematics/Sequences/Stairwell_scene_shots/Stairwell_scene_shotsRoot.Stairwell_scene_shotsRoot:MovieScene_0.MovieSceneCinematicShotTrack_0.MovieSceneCinematicShotSection_5][UEShotStartOffset=0][UEShotHandleFrames=0]</lognote>
				</logginginfo>
				<colorinfo>
					<lut />
					<lut1 />
					<asc_sop />
					<asc_sat />
					<lut2 />
				</colorinfo>
			</clip>
			<clip id="masterclip-3">
				<masterclipid>masterclip-3</masterclipid>
				<ismasterclip>TRUE</ismasterclip>
				<duration>120</duration>
				<rate>
					<timebase>24</timebase>
					<ntsc>FALSE</ntsc>
				</rate>
				<in>0</in>
				<out>120</out>
				<name>shot0020_01</name>
				<media>
					<video>
						<track>
							<clipitem id="clipitem-3">
								<masterclipid>masterclip-3</masterclipid>
								<ismasterclip>TRUE</ismasterclip>
								<name>shot0020_01</name>
								<enabled>TRUE</enabled>
								<duration>120</duration>
								<rate>
									<timebase>24</timebase>
									<ntsc>FALSE</ntsc>
								</rate>
								<in>0</in>
								<out>120</out>
								<anamorphic>FALSE</anamorphic>
								<pixelaspectratio>square</pixelaspectratio>
								<fielddominance>lower</fielddominance>
								<file id="file-3">
									<name>shot0020_01.avi</name>
									<pathurl>file://localhost/C%3a/Users/igfxd/OneDrive/Documents/Unreal%20Projects/Morrigan/MorriganHall/MorriganHall%205.2/Saved/VideoCaptures/shot0020_01.avi</pathurl>
									<rate>
										<timebase>24</timebase>
										<ntsc>FALSE</ntsc>
									</rate>
									<duration>120</duration>
									<timecode>
										<rate>
											<timebase>24</timebase>
											<ntsc>FALSE</ntsc>
										</rate>
										<string>00:00:00:00</string>
										<frame>0</frame>
									</timecode>
									<media>
										<video>
											<samplecharacteristics>
												<rate>
													<timebase>24</timebase>
													<ntsc>FALSE</ntsc>
												</rate>
												<width>1280</width>
												<height>720</height>
												<anamorphic>FALSE</anamorphic>
												<pixelaspectratio>square</pixelaspectratio>
												<fielddominance>lower</fielddominance>
											</samplecharacteristics>
										</video>
									</media>
								</file>
							</clipitem>
						</track>
					</video>
				</media>
				<logginginfo>
					<description />
					<scene />
					<shottake />
					<good />
					<originalvideofilename />
					<originalaudiofilename />
					<lognote>[UEShotSection=/Game/Cinematics/Sequences/Stairwell_scene_shots/Stairwell_scene_shotsRoot.Stairwell_scene_shotsRoot:MovieScene_0.MovieSceneCinematicShotTrack_0.MovieSceneCinematicShotSection_6][UEShotStartOffset=0][UEShotHandleFrames=0]</lognote>
				</logginginfo>
				<colorinfo>
					<lut />
					<lut1 />
					<asc_sop />
					<asc_sat />
					<lut2 />
				</colorinfo>
			</clip>
			<clip id="masterclip-4">
				<masterclipid>masterclip-4</masterclipid>
				<ismasterclip>TRUE</ismasterclip>
				<duration>120</duration>
				<rate>
					<timebase>24</timebase>
					<ntsc>FALSE</ntsc>
				</rate>
				<in>0</in>
				<out>120</out>
				<name>shot0060_01</name>
				<media>
					<video>
						<track>
							<clipitem id="clipitem-4">
								<masterclipid>masterclip-4</masterclipid>
								<ismasterclip>TRUE</ismasterclip>
								<name>shot0060_01</name>
								<enabled>TRUE</enabled>
								<duration>120</duration>
								<rate>
									<timebase>24</timebase>
									<ntsc>FALSE</ntsc>
								</rate>
								<in>0</in>
								<out>120</out>
								<anamorphic>FALSE</anamorphic>
								<pixelaspectratio>square</pixelaspectratio>
								<fielddominance>lower</fielddominance>
								<file id="file-4">
									<name>shot0060_01.avi</name>
									<pathurl>file://localhost/C%3a/Users/igfxd/OneDrive/Documents/Unreal%20Projects/Morrigan/MorriganHall/MorriganHall%205.2/Saved/VideoCaptures/shot0060_01.avi</pathurl>
									<rate>
										<timebase>24</timebase>
										<ntsc>FALSE</ntsc>
									</rate>
									<duration>120</duration>
									<timecode>
										<rate>
											<timebase>24</timebase>
											<ntsc>FALSE</ntsc>
										</rate>
										<string>00:00:00:00</string>
										<frame>0</frame>
									</timecode>
									<media>
										<video>
											<samplecharacteristics>
												<rate>
													<timebase>24</timebase>
													<ntsc>FALSE</ntsc>
												</rate>
												<width>1280</width>
												<height>720</height>
												<anamorphic>FALSE</anamorphic>
												<pixelaspectratio>square</pixelaspectratio>
												<fielddominance>lower</fielddominance>
											</samplecharacteristics>
										</video>
									</media>
								</file>
							</clipitem>
						</track>
					</video>
				</media>
				<logginginfo>
					<description />
					<scene />
					<shottake />
					<good />
					<originalvideofilename />
					<originalaudiofilename />
					<lognote>[UEShotSection=/Game/Cinematics/Sequences/Stairwell_scene_shots/Stairwell_scene_shotsRoot.Stairwell_scene_shotsRoot:MovieScene_0.MovieSceneCinematicShotTrack_0.MovieSceneCinematicShotSection_7][UEShotStartOffset=0][UEShotHandleFrames=0]</lognote>
				</logginginfo>
				<colorinfo>
					<lut />
					<lut1 />
					<asc_sop />
					<asc_sat />
					<lut2 />
				</colorinfo>
			</clip>
			<clip id="masterclip-5">
				<masterclipid>masterclip-5</masterclipid>
				<ismasterclip>TRUE</ismasterclip>
				<duration>120</duration>
				<rate>
					<timebase>24</timebase>
					<ntsc>FALSE</ntsc>
				</rate>
				<in>0</in>
				<out>120</out>
				<name>shot0040_01</name>
				<media>
					<video>
						<track>
							<clipitem id="clipitem-5">
								<masterclipid>masterclip-5</masterclipid>
								<ismasterclip>TRUE</ismasterclip>
								<name>shot0040_01</name>
								<enabled>TRUE</enabled>
								<duration>120</duration>
								<rate>
									<timebase>24</timebase>
									<ntsc>FALSE</ntsc>
								</rate>
								<in>0</in>
								<out>120</out>
								<anamorphic>FALSE</anamorphic>
								<pixelaspectratio>square</pixelaspectratio>
								<fielddominance>lower</fielddominance>
								<file id="file-5">
									<name>shot0040_01.avi</name>
									<pathurl>file://localhost/C%3a/Users/igfxd/OneDrive/Documents/Unreal%20Projects/Morrigan/MorriganHall/MorriganHall%205.2/Saved/VideoCaptures/shot0040_01.avi</pathurl>
									<rate>
										<timebase>24</timebase>
										<ntsc>FALSE</ntsc>
									</rate>
									<duration>120</duration>
									<timecode>
										<rate>
											<timebase>24</timebase>
											<ntsc>FALSE</ntsc>
										</rate>
										<string>00:00:00:00</string>
										<frame>0</frame>
									</timecode>
									<media>
										<video>
											<samplecharacteristics>
												<rate>
													<timebase>24</timebase>
													<ntsc>FALSE</ntsc>
												</rate>
												<width>1280</width>
												<height>720</height>
												<anamorphic>FALSE</anamorphic>
												<pixelaspectratio>square</pixelaspectratio>
												<fielddominance>lower</fielddominance>
											</samplecharacteristics>
										</video>
									</media>
								</file>
							</clipitem>
						</track>
					</video>
				</media>
				<logginginfo>
					<description />
					<scene />
					<shottake />
					<good />
					<originalvideofilename />
					<originalaudiofilename />
					<lognote>[UEShotSection=/Game/Cinematics/Sequences/Stairwell_scene_shots/Stairwell_scene_shotsRoot.Stairwell_scene_shotsRoot:MovieScene_0.MovieSceneCinematicShotTrack_0.MovieSceneCinematicShotSection_10][UEShotStartOffset=0][UEShotHandleFrames=0]</lognote>
				</logginginfo>
				<colorinfo>
					<lut />
					<lut1 />
					<asc_sop />
					<asc_sat />
					<lut2 />
				</colorinfo>
			</clip>
			<clip id="masterclip-6">
				<masterclipid>masterclip-6</masterclipid>
				<ismasterclip>TRUE</ismasterclip>
				<duration>120</duration>
				<rate>
					<timebase>24</timebase>
					<ntsc>FALSE</ntsc>
				</rate>
				<in>0</in>
				<out>120</out>
				<name>shot0060_015</name>
				<media>
					<video>
						<track>
							<clipitem id="clipitem-6">
								<masterclipid>masterclip-6</masterclipid>
								<ismasterclip>TRUE</ismasterclip>
								<name>shot0060_015</name>
								<enabled>TRUE</enabled>
								<duration>120</duration>
								<rate>
									<timebase>24</timebase>
									<ntsc>FALSE</ntsc>
								</rate>
								<in>0</in>
								<out>120</out>
								<anamorphic>FALSE</anamorphic>
								<pixelaspectratio>square</pixelaspectratio>
								<fielddominance>lower</fielddominance>
								<file id="file-6">
									<name>shot0060_015.avi</name>
									<pathurl>file://localhost/C%3a/Users/igfxd/OneDrive/Documents/Unreal%20Projects/Morrigan/MorriganHall/MorriganHall%205.2/Saved/VideoCaptures/shot0060_015.avi</pathurl>
									<rate>
										<timebase>24</timebase>
										<ntsc>FALSE</ntsc>
									</rate>
									<duration>120</duration>
									<timecode>
										<rate>
											<timebase>24</timebase>
											<ntsc>FALSE</ntsc>
										</rate>
										<string>00:00:00:00</string>
										<frame>0</frame>
									</timecode>
									<media>
										<video>
											<samplecharacteristics>
												<rate>
													<timebase>24</timebase>
													<ntsc>FALSE</ntsc>
												</rate>
												<width>1280</width>
												<height>720</height>
												<anamorphic>FALSE</anamorphic>
												<pixelaspectratio>square</pixelaspectratio>
												<fielddominance>lower</fielddominance>
											</samplecharacteristics>
										</video>
									</media>
								</file>
							</clipitem>
						</track>
					</video>
				</media>
				<logginginfo>
					<description />
					<scene />
					<shottake />
					<good />
					<originalvideofilename />
					<originalaudiofilename />
					<lognote>[UEShotSection=/Game/Cinematics/Sequences/Stairwell_scene_shots/Stairwell_scene_shotsRoot.Stairwell_scene_shotsRoot:MovieScene_0.MovieSceneCinematicShotTrack_0.MovieSceneCinematicShotSection_1][UEShotStartOffset=0][UEShotHandleFrames=0]</lognote>
				</logginginfo>
				<colorinfo>
					<lut />
					<lut1 />
					<asc_sop />
					<asc_sat />
					<lut2 />
				</colorinfo>
			</clip>
			<clip id="masterclip-7">
				<masterclipid>masterclip-7</masterclipid>
				<ismasterclip>TRUE</ismasterclip>
				<duration>123</duration>
				<rate>
					<timebase>24</timebase>
					<ntsc>FALSE</ntsc>
				</rate>
				<in>0</in>
				<out>123</out>
				<name>shot0070_00167</name>
				<media>
					<video>
						<track>
							<clipitem id="clipitem-7">
								<masterclipid>masterclip-7</masterclipid>
								<ismasterclip>TRUE</ismasterclip>
								<name>shot0070_00167</name>
								<enabled>TRUE</enabled>
								<duration>123</duration>
								<rate>
									<timebase>24</timebase>
									<ntsc>FALSE</ntsc>
								</rate>
								<in>0</in>
								<out>123</out>
								<anamorphic>FALSE</anamorphic>
								<pixelaspectratio>square</pixelaspectratio>
								<fielddominance>lower</fielddominance>
								<file id="file-7">
									<name>shot0070_00167.avi</name>
									<pathurl>file://localhost/C%3a/Users/igfxd/OneDrive/Documents/Unreal%20Projects/Morrigan/MorriganHall/MorriganHall%205.2/Saved/VideoCaptures/shot0070_00167.avi</pathurl>
									<rate>
										<timebase>24</timebase>
										<ntsc>FALSE</ntsc>
									</rate>
									<duration>123</duration>
									<timecode>
										<rate>
											<timebase>24</timebase>
											<ntsc>FALSE</ntsc>
										</rate>
										<string>00:00:00:00</string>
										<frame>0</frame>
									</timecode>
									<media>
										<video>
											<samplecharacteristics>
												<rate>
													<timebase>24</timebase>
													<ntsc>FALSE</ntsc>
												</rate>
												<width>1280</width>
												<height>720</height>
												<anamorphic>FALSE</anamorphic>
												<pixelaspectratio>square</pixelaspectratio>
												<fielddominance>lower</fielddominance>
											</samplecharacteristics>
										</video>
									</media>
								</file>
							</clipitem>
						</track>
					</video>
				</media>
				<logginginfo>
					<description />
					<scene />
					<shottake />
					<good />
					<originalvideofilename />
					<originalaudiofilename />
					<lognote>[UEShotSection=/Game/Cinematics/Sequences/Stairwell_scene_shots/Stairwell_scene_shotsRoot.Stairwell_scene_shotsRoot:MovieScene_0.MovieSceneCinematicShotTrack_0.MovieSceneCinematicShotSection_2][UEShotStartOffset=0][UEShotHandleFrames=0]</lognote>
				</logginginfo>
				<colorinfo>
					<lut />
					<lut1 />
					<asc_sop />
					<asc_sat />
					<lut2 />
				</colorinfo>
			</clip>
			<clip id="masterclip-8">
				<masterclipid>masterclip-8</masterclipid>
				<ismasterclip>TRUE</ismasterclip>
				<duration>120</duration>
				<rate>
					<timebase>24</timebase>
					<ntsc>FALSE</ntsc>
				</rate>
				<in>0</in>
				<out>120</out>
				<name>shot0060_01453</name>
				<media>
					<video>
						<track>
							<clipitem id="clipitem-8">
								<masterclipid>masterclip-8</masterclipid>
								<ismasterclip>TRUE</ismasterclip>
								<name>shot0060_01453</name>
								<enabled>TRUE</enabled>
								<duration>120</duration>
								<rate>
									<timebase>24</timebase>
									<ntsc>FALSE</ntsc>
								</rate>
								<in>0</in>
								<out>120</out>
								<anamorphic>FALSE</anamorphic>
								<pixelaspectratio>square</pixelaspectratio>
								<fielddominance>lower</fielddominance>
								<file id="file-8">
									<name>shot0060_01453.avi</name>
									<pathurl>file://localhost/C%3a/Users/igfxd/OneDrive/Documents/Unreal%20Projects/Morrigan/MorriganHall/MorriganHall%205.2/Saved/VideoCaptures/shot0060_01453.avi</pathurl>
									<rate>
										<timebase>24</timebase>
										<ntsc>FALSE</ntsc>
									</rate>
									<duration>120</duration>
									<timecode>
										<rate>
											<timebase>24</timebase>
											<ntsc>FALSE</ntsc>
										</rate>
										<string>00:00:00:00</string>
										<frame>0</frame>
									</timecode>
									<media>
										<video>
											<samplecharacteristics>
												<rate>
													<timebase>24</timebase>
													<ntsc>FALSE</ntsc>
												</rate>
												<width>1280</width>
												<height>720</height>
												<anamorphic>FALSE</anamorphic>
												<pixelaspectratio>square</pixelaspectratio>
												<fielddominance>lower</fielddominance>
											</samplecharacteristics>
										</video>
									</media>
								</file>
							</clipitem>
						</track>
					</video>
				</media>
				<logginginfo>
					<description />
					<scene />
					<shottake />
					<good />
					<originalvideofilename />
					<originalaudiofilename />
					<lognote>[UEShotSection=/Game/Cinematics/Sequences/Stairwell_scene_shots/Stairwell_scene_shotsRoot.Stairwell_scene_shotsRoot:MovieScene_0.MovieSceneCinematicShotTrack_0.MovieSceneCinematicShotSection_0][UEShotStartOffset=0][UEShotHandleFrames=0]</lognote>
				</logginginfo>
				<colorinfo>
					<lut />
					<lut1 />
					<asc_sop />
					<asc_sat />
					<lut2 />
				</colorinfo>
			</clip>
			<sequence id="sequence-1">
				<duration>963</duration>
				<rate>
					<timebase>24</timebase>
					<ntsc>FALSE</ntsc>
				</rate>
				<name>Stairwell_scene_shotsRoot</name>
				<media>
					<video>
						<format>
							<samplecharacteristics>
								<rate>
									<timebase>24</timebase>
									<ntsc>FALSE</ntsc>
								</rate>
								<width>1280</width>
								<height>720</height>
								<anamorphic>FALSE</anamorphic>
								<pixelaspectratio>square</pixelaspectratio>
								<fielddominance>lower</fielddominance>
							</samplecharacteristics>
						</format>
						<track>
							<clipitem id="clipitem-9">
								<masterclipid>masterclip-1</masterclipid>
								<ismasterclip>FALSE</ismasterclip>
								<name>shot0030_01</name>
								<enabled>TRUE</enabled>
								<duration>120</duration>
								<rate>
									<timebase>24</timebase>
									<ntsc>FALSE</ntsc>
								</rate>
								<start>-1</start>
								<end>119</end>
								<in>0</in>
								<out>120</out>
								<file id="file-1" />
							</clipitem>
							<clipitem id="clipitem-10">
								<masterclipid>masterclip-2</masterclipid>
								<ismasterclip>FALSE</ismasterclip>
								<name>shot0010_01</name>
								<enabled>TRUE</enabled>
								<duration>121</duration>
								<rate>
									<timebase>24</timebase>
									<ntsc>FALSE</ntsc>
								</rate>
								<start>119</start>
								<end>240</end>
								<in>0</in>
								<out>121</out>
								<file id="file-2" />
							</clipitem>
							<clipitem id="clipitem-11">
								<masterclipid>masterclip-3</masterclipid>
								<ismasterclip>FALSE</ismasterclip>
								<name>shot0020_01</name>
								<enabled>TRUE</enabled>
								<duration>120</duration>
								<rate>
									<timebase>24</timebase>
									<ntsc>FALSE</ntsc>
								</rate>
								<start>240</start>
								<end>360</end>
								<in>0</in>
								<out>120</out>
								<file id="file-3" />
							</clipitem>
							<clipitem id="clipitem-12">
								<masterclipid>masterclip-4</masterclipid>
								<ismasterclip>FALSE</ismasterclip>
								<name>shot0060_01</name>
								<enabled>TRUE</enabled>
								<duration>120</duration>
								<rate>
									<timebase>24</timebase>
									<ntsc>FALSE</ntsc>
								</rate>
								<start>360</start>
								<end>480</end>
								<in>0</in>
								<out>120</out>
								<file id="file-4" />
							</clipitem>
							<clipitem id="clipitem-13">
								<masterclipid>masterclip-5</masterclipid>
								<ismasterclip>FALSE</ismasterclip>
								<name>shot0040_01</name>
								<enabled>TRUE</enabled>
								<duration>120</duration>
								<rate>
									<timebase>24</timebase>
									<ntsc>FALSE</ntsc>
								</rate>
								<start>480</start>
								<end>600</end>
								<in>0</in>
								<out>120</out>
								<file id="file-5" />
							</clipitem>
							<clipitem id="clipitem-14">
								<masterclipid>masterclip-6</masterclipid>
								<ismasterclip>FALSE</ismasterclip>
								<name>shot0060_015</name>
								<enabled>TRUE</enabled>
								<duration>120</duration>
								<rate>
									<timebase>24</timebase>
									<ntsc>FALSE</ntsc>
								</rate>
								<start>600</start>
								<end>720</end>
								<in>0</in>
								<out>120</out>
								<file id="file-6" />
							</clipitem>
							<clipitem id="clipitem-15">
								<masterclipid>masterclip-7</masterclipid>
								<ismasterclip>FALSE</ismasterclip>
								<name>shot0070_00167</name>
								<enabled>TRUE</enabled>
								<duration>123</duration>
								<rate>
									<timebase>24</timebase>
									<ntsc>FALSE</ntsc>
								</rate>
								<start>720</start>
								<end>843</end>
								<in>0</in>
								<out>123</out>
								<file id="file-7" />
							</clipitem>
							<clipitem id="clipitem-16">
								<masterclipid>masterclip-8</masterclipid>
								<ismasterclip>FALSE</ismasterclip>
								<name>shot0060_01453</name>
								<enabled>TRUE</enabled>
								<duration>120</duration>
								<rate>
									<timebase>24</timebase>
									<ntsc>FALSE</ntsc>
								</rate>
								<start>843</start>
								<end>963</end>
								<in>0</in>
								<out>120</out>
								<file id="file-8" />
							</clipitem>
							<enabled>TRUE</enabled>
							<locked>FALSE</locked>
						</track>
					</video>
					<audio>
						<numOutputChannels>1</numOutputChannels>
						<format>
							<samplecharacteristics>
								<depth>16</depth>
								<samplerate>44100</samplerate>
							</samplecharacteristics>
						</format>
						<outputs>
							<group>
								<index>1</index>
								<numchannels>1</numchannels>
								<downmix>0</downmix>
								<channel>
									<index>1</index>
								</channel>
							</group>
						</outputs>
					</audio>
				</media>
				<timecode>
					<rate>
						<timebase>24</timebase>
						<ntsc>FALSE</ntsc>
					</rate>
					<string>00:00:00:00</string>
					<frame>0</frame>
				</timecode>
			</sequence>
		</children>
	</project>
</xmeml>
